<?xml version="1.0" standalone="no"?><!DOCTYPE svg PUBLIC "-//W3C//DTD SVG 1.1//EN" "http://www.w3.org/Graphics/SVG/1.1/DTD/svg11.dtd"><svg t="1680109506094" class="icon" viewBox="0 0 1024 1024" version="1.1" xmlns="http://www.w3.org/2000/svg" p-id="3033" xmlns:xlink="http://www.w3.org/1999/xlink" width="200" height="200"><path d="M224 224m-208 0a208 208 0 1 0 416 0 208 208 0 1 0-416 0Z" fill="#C9F0FF" p-id="3034"></path><path d="M224 448C100.288 448 0 347.712 0 224S100.288 0 224 0s224 100.288 224 224a224 224 0 0 1-224 224z m0-416C117.968 32 32 117.968 32 224s85.968 192 192 192 192-85.968 192-192A192 192 0 0 0 224 32z" fill="#0067FF" p-id="3035"></path><path d="M800 224m-208 0a208 208 0 1 0 416 0 208 208 0 1 0-416 0Z" fill="#C9F0FF" p-id="3036"></path><path d="M800 448c-123.712 0-224-100.288-224-224S676.288 0 800 0s224 100.288 224 224a224 224 0 0 1-224 224z m0-416c-106.032 0-192 85.968-192 192s85.968 192 192 192 192-85.968 192-192A192 192 0 0 0 800 32z" fill="#0067FF" p-id="3037"></path><path d="M800 800m-208 0a208 208 0 1 0 416 0 208 208 0 1 0-416 0Z" fill="#C9F0FF" p-id="3038"></path><path d="M800 1024c-123.712 0-224-100.288-224-224s100.288-224 224-224 224 100.288 224 224a224 224 0 0 1-224 224z m0-416c-106.032 0-192 85.968-192 192s85.968 192 192 192 192-85.968 192-192-85.968-192-192-192z" fill="#0067FF" p-id="3039"></path><path d="M224 800m-208 0a208 208 0 1 0 416 0 208 208 0 1 0-416 0Z" fill="#C9F0FF" p-id="3040"></path><path d="M224 1024C100.288 1024 0 923.712 0 800s100.288-224 224-224 224 100.288 224 224a224 224 0 0 1-224 224z m0-416C117.968 608 32 693.968 32 800s85.968 192 192 192 192-85.968 192-192-85.968-192-192-192z" fill="#0067FF" p-id="3041"></path><path d="M760.901587 217.923579m22.627417 22.627417l0 0q22.627417 22.627417 0 45.254834l-497.803174 497.803174q-22.627417 22.627417-45.254834 0l0 0q-22.627417-22.627417 0-45.254834l497.803174-497.803174q22.627417-22.627417 45.254834 0Z" fill="#0067FF" p-id="3042"></path><path d="M813.308421 760.869587m-22.627417 22.627417l0 0q-22.627417 22.627417-45.254834 0l-497.803174-497.803174q-22.627417-22.627417 0-45.254834l0 0q22.627417-22.627417 45.254834 0l497.803174 497.803174q22.627417 22.627417 0 45.254834Z" fill="#0067FF" p-id="3043"></path><path d="M512 512m-128 0a128 128 0 1 0 256 0 128 128 0 1 0-256 0Z" fill="#FFFFFF" p-id="3044"></path><path d="M512 656a144 144 0 1 1 0-288 144 144 0 0 1 0 288z m0-256a112 112 0 1 0 0 224 112 112 0 0 0 0-224z" fill="#0067FF" p-id="3045"></path><path d="M224 224m-64 0a64 64 0 1 0 128 0 64 64 0 1 0-128 0Z" fill="#FFFFFF" p-id="3046"></path><path d="M224 304a80 80 0 1 1 0-160 80 80 0 0 1 0 160z m0-128a48 48 0 1 0 0 96 48 48 0 0 0 0-96z" fill="#0067FF" p-id="3047"></path><path d="M224 800m-64 0a64 64 0 1 0 128 0 64 64 0 1 0-128 0Z" fill="#FFFFFF" p-id="3048"></path><path d="M224 880a80 80 0 1 1 0-160 80 80 0 0 1 0 160z m0-128a48 48 0 1 0 0 96 48 48 0 0 0 0-96z" fill="#0067FF" p-id="3049"></path><path d="M800 800m-64 0a64 64 0 1 0 128 0 64 64 0 1 0-128 0Z" fill="#FFFFFF" p-id="3050"></path><path d="M800 880a80 80 0 1 1 0-160 80 80 0 0 1 0 160z m0-128a48 48 0 1 0 0 96 48 48 0 0 0 0-96z" fill="#0067FF" p-id="3051"></path><path d="M800 224.48m-64 0a64 64 0 1 0 128 0 64 64 0 1 0-128 0Z" fill="#FFFFFF" p-id="3052"></path><path d="M800 304a80 80 0 1 1 0-160 80 80 0 0 1 0 160z m0-128a48 48 0 1 0 0 96 48 48 0 0 0 0-96z" fill="#0067FF" p-id="3053"></path><path d="M512 512m-32 0a32 32 0 1 0 64 0 32 32 0 1 0-64 0Z" fill="#0067FF" p-id="3054"></path><path d="M144 96m-16 0a16 16 0 1 0 32 0 16 16 0 1 0-32 0Z" fill="#FFFFFF" p-id="3055"></path><path d="M720 96m-16 0a16 16 0 1 0 32 0 16 16 0 1 0-32 0Z" fill="#FFFFFF" p-id="3056"></path><path d="M144 672m-16 0a16 16 0 1 0 32 0 16 16 0 1 0-32 0Z" fill="#FFFFFF" p-id="3057"></path></svg>