<?xml version="1.0" standalone="no"?><!DOCTYPE svg PUBLIC "-//W3C//DTD SVG 1.1//EN" "http://www.w3.org/Graphics/SVG/1.1/DTD/svg11.dtd"><svg t="1680112112263" class="icon" viewBox="0 0 1024 1024" version="1.1" xmlns="http://www.w3.org/2000/svg" p-id="3483" xmlns:xlink="http://www.w3.org/1999/xlink" width="200" height="200"><path d="M140.501333 664.32a161.92 161.92 0 0 1 166.272-38.4c-10.026667 12.245333-21.333333 25.088-33.792 38.4a115.754667 115.754667 0 0 0-121.386666 61.226667 114.901333 114.901333 0 0 0 21.162666 133.973333 115.968 115.968 0 0 0 134.442667 21.077333 115.114667 115.114667 0 0 0 61.482667-120.96c13.312-12.373333 26.24-23.637333 38.570666-33.621333a160.512 160.512 0 0 1-38.570666 165.632 161.962667 161.962667 0 0 1-228.181334 0 160.512 160.512 0 0 1 0-227.328z m582.954667-44.245333a161.92 161.92 0 0 1 165.504 38.656 160.554667 160.554667 0 0 1 0 227.328 161.962667 161.962667 0 0 1-228.181333 0 160.512 160.512 0 0 1-38.784-164.821334c12.458667 9.813333 25.386667 20.906667 38.784 33.152a115.114667 115.114667 0 0 0 61.696 120.746667 115.968 115.968 0 0 0 134.314666-21.205333 114.901333 114.901333 0 0 0 21.205334-133.845334 115.754667 115.754667 0 0 0-121.258667-61.44 738.005333 738.005333 0 0 1-33.28-38.570666zM271.274667 222.122667a138.709333 138.709333 0 0 1 12.714666 13.098666c33.408 35.968 146.176 151.68 215.253334 154.410667 4.437333 0.170667 22.613333 0.256 27.904-0.170667 67.413333-5.12 174.08-112.938667 210.090666-151.381333 2.688-2.858667 9.258667-10.24 10.666667-11.648l0.64-0.64a6.826667 6.826667 0 0 1 1.194667-1.066667c16.085333-14.378667 39.168-15.445333 52.650666-2.005333 12.672 12.586667 12.501333 33.664 0.512 49.408a139.605333 139.605333 0 0 1-13.141333 12.672c-36.565333 33.749333-155.349333 148.650667-155.008 217.173333v18.261334c-2.389333 68.266667 118.058667 184.832 154.965333 218.88l2.901334 2.517333c3.584 3.2 7.04 6.570667 10.24 10.112 11.989333 15.786667 12.16 36.821333-0.512 49.450667-13.482667 13.482667-36.565333 12.373333-52.608-2.005334l-0.64-0.512-1.28-1.237333c-1.365333-1.365333-7.936-8.789333-10.581334-11.605333-35.84-38.144-141.354667-144.896-208.853333-151.253334a312.149333 312.149333 0 0 0-34.176 0.128c-69.376 7.765333-177.621333 118.912-210.261333 154.026667l-2.56 2.944a139.136 139.136 0 0 1-10.154667 10.197333c-15.786667 11.946667-36.949333 12.074667-49.621333-0.512-13.525333-13.44-12.416-36.437333 2.048-52.48a6.698667 6.698667 0 0 1 1.066666-1.152l0.64-0.682666c1.408-1.365333 8.832-7.893333 11.690667-10.581334 36.650667-34.090667 136.021333-131.584 150.4-198.826666 1.962667-9.216 2.005333-38.826667 0.938667-46.08-10.069333-67.328-113.749333-169.045333-151.296-204.074667-2.261333-2.133333-7.509333-6.741333-10.24-9.173333l-1.408-1.408-0.682667-0.64a7.253333 7.253333 0 0 1-1.066667-1.194667c-14.464-16-15.530667-38.997333-2.005333-52.48 12.629333-12.586667 33.749333-12.373333 49.578667-0.469333z m212.437333 222.293333a72.96 72.96 0 0 0-45.226667 67.370667 72.96 72.96 0 0 0 45.226667 67.413333 73.386667 73.386667 0 0 0 101.418667-67.413333 73.386667 73.386667 0 0 0-101.461334-67.413334z m28.245333 30.464l0 0z m151.338667-331.52a161.962667 161.962667 0 0 1 228.181333 0 160.512 160.512 0 0 1 0 227.413333 161.92 161.92 0 0 1-165.802666 38.528c9.642667-11.946667 20.736-24.746667 33.493333-38.528a115.754667 115.754667 0 0 0 121.258667-61.397333 114.901333 114.901333 0 0 0-21.205334-133.888 115.968 115.968 0 0 0-134.4-21.12 115.114667 115.114667 0 0 0-61.568 120.832c-14.08 13.013333-26.965333 24.064-38.656 33.450667a160.512 160.512 0 0 1 38.698667-165.248z m-530.773333-11.008a161.962667 161.962667 0 0 1 228.181333 0 160.512 160.512 0 0 1 38.186667 166.741333c-12.373333-10.453333-25.173333-21.845333-38.272-34.261333a115.072 115.072 0 0 0-61.184-121.301333 115.968 115.968 0 0 0-134.656 20.949333A114.901333 114.901333 0 0 0 143.701333 298.666667a115.754667 115.754667 0 0 0 121.728 61.013333c12.458667 13.098667 23.978667 25.856 34.389334 38.144a162.005333 162.005333 0 0 1-167.296-38.058667 160.554667 160.554667 0 0 1 0-227.413333z" fill="#707070" p-id="3484"></path></svg>