<?xml version="1.0" standalone="no"?><!DOCTYPE svg PUBLIC "-//W3C//DTD SVG 1.1//EN" "http://www.w3.org/Graphics/SVG/1.1/DTD/svg11.dtd"><svg t="1680113396956" class="icon" viewBox="0 0 1024 1024" version="1.1" xmlns="http://www.w3.org/2000/svg" p-id="5594" xmlns:xlink="http://www.w3.org/1999/xlink" width="200" height="200"><path d="M642.048 447.488l-257.024 0 0-128 257.024 0 0 128zM642.048 640l-257.024 0 0-128 257.024 0 0 128zM642.048 831.488l-257.024 0 0-128 257.024 0 0 128zM705.536 126.976q26.624 0 49.664 10.24t40.448 27.648 27.648 40.448 10.24 49.664l0 641.024q0 26.624-10.24 49.664t-27.648 40.448-40.448 27.648-49.664 10.24l-384 0q-26.624 0-49.664-10.24t-40.448-27.648-27.648-40.448-10.24-49.664l0-641.024q0-26.624 10.24-49.664t27.648-40.448 40.448-27.648 49.664-10.24l63.488 0q0-26.624 18.944-45.056t45.568-18.432l128 0q26.624 0 45.568 18.432t18.944 45.056l63.488 0zM705.536 254.976l-384 0 0 641.024 384 0 0-641.024z" p-id="5595" fill="#3ce647"></path></svg>