<?xml version="1.0" standalone="no"?><!DOCTYPE svg PUBLIC "-//W3C//DTD SVG 1.1//EN" "http://www.w3.org/Graphics/SVG/1.1/DTD/svg11.dtd"><svg t="1680113515183" class="icon" viewBox="0 0 1024 1024" version="1.1" xmlns="http://www.w3.org/2000/svg" p-id="11054" xmlns:xlink="http://www.w3.org/1999/xlink" width="200" height="200"><path d="M512 279.272727C434.874182 279.272727 372.363636 341.783273 372.363636 418.909091c0 77.125818 62.510545 139.636364 139.636364 139.636364 77.125818 0 139.636364-62.510545 139.636364-139.636364C651.636364 341.783273 589.125818 279.272727 512 279.272727zM512 512c-51.386182 0-93.090909-41.658182-93.090909-93.090909 0-51.386182 41.704727-93.090909 93.090909-93.090909 51.432727 0 93.090909 41.704727 93.090909 93.090909C605.090909 470.341818 563.432727 512 512 512zM512 69.818182c-205.637818 0-372.363636 164.957091-372.363636 368.500364C139.636364 641.815273 512 1000.727273 512 1000.727273s372.363636-358.912 372.363636-562.408727C884.363636 234.775273 717.637818 69.818182 512 69.818182zM512 931.234909c0 0-325.864727-313.949091-325.864727-492.125091 0-178.222545 145.92-322.653091 325.864727-322.653091s325.864727 144.477091 325.864727 322.653091C837.864727 617.285818 512 931.234909 512 931.234909z" fill="#f4ea2a" p-id="11055"></path></svg>